<svg xmlns="http://www.w3.org/2000/svg" xmlns:xlink="http://www.w3.org/1999/xlink" width="190.257" height="57.027" viewBox="0 0 190.257 57.027">
  <defs>
    <clipPath id="clip-path">
      <rect id="Rectangle_32" data-name="Rectangle 32" width="190.257" height="57.027" fill="none"/>
    </clipPath>
  </defs>
  <g id="Group_90" data-name="Group 90" transform="translate(1011.964 354.877)">
    <g id="Group_88" data-name="Group 88" transform="translate(-1011.964 -354.877)">
      <g id="Group_87" data-name="Group 87" clip-path="url(#clip-path)">
        <path id="Path_3080" data-name="Path 3080" d="M59.419,31.951A27.47,27.47,0,1,1,31.95,4.482,27.47,27.47,0,0,1,59.419,31.951" transform="translate(-3.436 -3.438)" fill="#fff"/>
        <path id="Path_3081" data-name="Path 3081" d="M28.513,57.028A28.513,28.513,0,1,1,57.027,28.514,28.546,28.546,0,0,1,28.513,57.028m0-54.939A26.426,26.426,0,1,0,54.939,28.514,26.456,26.456,0,0,0,28.513,2.089" transform="translate(0 -0.001)" fill="#005eab"/>
        <path id="Path_3082" data-name="Path 3082" d="M66.326,41.869A24.458,24.458,0,1,1,41.868,17.411,24.458,24.458,0,0,1,66.326,41.869" transform="translate(-13.354 -13.355)" fill="#005eab"/>
        <path id="Path_3083" data-name="Path 3083" d="M81.049,100.285c-11.136-2.122-30.041,10.649-36.064,1.545a7.019,7.019,0,0,1,8.549-5.161c0-.072-.005-.143-.005-.215A4.538,4.538,0,0,1,62.4,95.091a10,10,0,0,1,18.658,4.995c0,.066,0,.132-.005.2" transform="translate(-34.506 -69.102)" fill="#fff"/>
        <path id="Path_3084" data-name="Path 3084" d="M392.94,186.608c0,.968-.858,1.59-2.046,1.59a1.815,1.815,0,0,1-2.032-1.5.2.2,0,0,1,.225-.239h.472c.137,0,.2.078.241.209.094.488.555.667,1.094.667.619,0,1.112-.222,1.112-.726,0-1.215-3.064-.426-3.064-2.451,0-.962.858-1.59,1.952-1.59a1.764,1.764,0,0,1,1.925,1.5.2.2,0,0,1-.225.239h-.472c-.137,0-.2-.078-.241-.212a.9.9,0,0,0-.986-.665c-.526,0-1.019.222-1.019.727,0,1.22,3.064.424,3.064,2.451" transform="translate(-298.277 -140.039)" fill="#005eab"/>
        <path id="Path_3085" data-name="Path 3085" d="M418.347,184.45v3.386a.205.205,0,0,1-.228.228h-.477a.205.205,0,0,1-.228-.228v-3.351a.9.9,0,0,0-.936-1.032c-.483,0-1.137.3-1.137,1.346v3.037a.205.205,0,0,1-.228.228h-.477a.205.205,0,0,1-.228-.228v-3.351a.9.9,0,0,0-.936-1.032c-.482,0-1.137.3-1.137,1.346v3.037a.205.205,0,0,1-.228.228h-.477a.205.205,0,0,1-.228-.228V182.93a.205.205,0,0,1,.228-.228h.477a.2.2,0,0,1,.228.228v.361a1.6,1.6,0,0,1,1.386-.723,1.524,1.524,0,0,1,1.39.84,1.718,1.718,0,0,1,1.548-.84,1.677,1.677,0,0,1,1.686,1.882" transform="translate(-315.568 -140.039)" fill="#005eab"/>
        <path id="Path_3086" data-name="Path 3086" d="M449.837,184.606v3.23a.2.2,0,0,1-.228.228h-.466a.205.205,0,0,1-.228-.228v-.327a1.885,1.885,0,0,1-1.592.689,1.721,1.721,0,1,1,0-3.426,2.075,2.075,0,0,1,1.592.621v-.76a1.067,1.067,0,0,0-1.163-1.18,1.052,1.052,0,0,0-1.137.753c-.04.134-.1.212-.239.212H445.9a.2.2,0,0,1-.228-.239,2.111,2.111,0,0,1,4.161.426m-.922,1.879c0-.574-.547-.93-1.322-.93-.839,0-1.22.394-1.22.93s.381.93,1.22.93c.775,0,1.322-.394,1.322-.93" transform="translate(-341.676 -140.039)" fill="#005eab"/>
        <path id="Path_3087" data-name="Path 3087" d="M472.427,183.021v.509c0,.139-.059.225-.158.225a1.446,1.446,0,0,0-1.461,1.619v2.641a.2.2,0,0,1-.228.228H470.1a.205.205,0,0,1-.228-.228V183.11a.205.205,0,0,1,.228-.228h.477a.205.205,0,0,1,.228.228v.582a1.666,1.666,0,0,1,1.389-.888.193.193,0,0,1,.231.217" transform="translate(-360.419 -140.219)" fill="#005eab"/>
        <path id="Path_3088" data-name="Path 3088" d="M485.786,177.722v.445a.205.205,0,0,1-.228.228h-.823v4.233a.2.2,0,0,1-.228.228h-.477a.205.205,0,0,1-.228-.228v-4.233h-.831a.205.205,0,0,1-.228-.228v-.445a.205.205,0,0,1,.228-.228h.831v-1.488a.205.205,0,0,1,.228-.228h.477a.205.205,0,0,1,.228.228v1.488h.823a.205.205,0,0,1,.228.228" transform="translate(-370.29 -134.831)" fill="#005eab"/>
        <path id="Path_3089" data-name="Path 3089" d="M502.965,185.4c0,.067,0,.131-.005.2a.217.217,0,0,1-.241.214h-4.2a1.76,1.76,0,0,0,1.838,1.55,1.6,1.6,0,0,0,1.349-.638.329.329,0,0,1,.276-.148l.515,0c.169,0,.26.1.2.236a2.479,2.479,0,0,1-2.351,1.391,2.822,2.822,0,1,1,2.619-2.8m-.948-.41a1.653,1.653,0,0,0-1.685-1.549,1.744,1.744,0,0,0-1.814,1.549Z" transform="translate(-381.654 -140.039)" fill="#005eab"/>
        <path id="Path_3090" data-name="Path 3090" d="M527.722,183.021v.509c0,.139-.059.225-.158.225a1.446,1.446,0,0,0-1.461,1.619v2.641a.2.2,0,0,1-.228.228H525.4a.205.205,0,0,1-.228-.228V183.11a.205.205,0,0,1,.228-.228h.477a.205.205,0,0,1,.228.228v.582a1.666,1.666,0,0,1,1.389-.888.193.193,0,0,1,.231.217" transform="translate(-402.834 -140.219)" fill="#005eab"/>
        <path id="Path_3091" data-name="Path 3091" d="M550.182,185.383a2.826,2.826,0,1,1,2.826,2.815,2.793,2.793,0,0,1-2.826-2.815m4.719,0a1.893,1.893,0,1,0-1.893,1.909,1.869,1.869,0,0,0,1.893-1.909" transform="translate(-422.019 -140.039)" fill="#005eab"/>
        <path id="Path_3092" data-name="Path 3092" d="M582.746,183.144a.205.205,0,0,1,.228.228v4.906a.205.205,0,0,1-.228.228h-.477a.205.205,0,0,1-.228-.228v-.432a1.761,1.761,0,0,1-1.587.794,1.826,1.826,0,0,1-1.8-2.016v-3.252a.205.205,0,0,1,.228-.228h.477a.205.205,0,0,1,.228.228v3.217a1.055,1.055,0,0,0,1.113,1.166c.668,0,1.338-.4,1.338-1.56v-2.823a.205.205,0,0,1,.228-.228h.477Z" transform="translate(-443.862 -140.481)" fill="#005eab"/>
        <path id="Path_3093" data-name="Path 3093" d="M604.157,177.722v.445a.205.205,0,0,1-.228.228h-.823v4.233a.2.2,0,0,1-.228.228H602.4a.205.205,0,0,1-.228-.228v-4.233h-.831a.205.205,0,0,1-.228-.228v-.445a.205.205,0,0,1,.228-.228h.831v-1.488a.205.205,0,0,1,.228-.228h.477a.2.2,0,0,1,.228.228v1.488h.823a.205.205,0,0,1,.228.228" transform="translate(-461.087 -134.831)" fill="#005eab"/>
        <path id="Path_3094" data-name="Path 3094" d="M620.7,186.608c0,.968-.858,1.59-2.046,1.59a1.815,1.815,0,0,1-2.032-1.5.2.2,0,0,1,.225-.239h.472c.137,0,.2.078.241.209.094.488.555.667,1.094.667.619,0,1.112-.222,1.112-.726,0-1.215-3.064-.426-3.064-2.451,0-.962.858-1.59,1.952-1.59a1.765,1.765,0,0,1,1.925,1.5.2.2,0,0,1-.225.239h-.472c-.137,0-.2-.078-.241-.212a.9.9,0,0,0-.986-.665c-.526,0-1.019.222-1.019.727,0,1.22,3.064.424,3.064,2.451" transform="translate(-472.984 -140.039)" fill="#005eab"/>
        <path id="Path_3095" data-name="Path 3095" d="M637.339,185.383a2.826,2.826,0,1,1,2.826,2.815,2.793,2.793,0,0,1-2.826-2.815m4.719,0a1.893,1.893,0,1,0-1.893,1.909,1.87,1.87,0,0,0,1.893-1.909" transform="translate(-488.873 -140.039)" fill="#005eab"/>
        <path id="Path_3096" data-name="Path 3096" d="M669.9,183.144a.205.205,0,0,1,.228.228v4.906a.205.205,0,0,1-.228.228h-.477a.205.205,0,0,1-.228-.228v-.432a1.76,1.76,0,0,1-1.587.794,1.826,1.826,0,0,1-1.8-2.016v-3.252a.205.205,0,0,1,.228-.228h.477a.205.205,0,0,1,.228.228v3.217a1.055,1.055,0,0,0,1.113,1.166c.668,0,1.338-.4,1.338-1.56v-2.823a.205.205,0,0,1,.228-.228h.477Z" transform="translate(-510.716 -140.481)" fill="#005eab"/>
        <path id="Path_3097" data-name="Path 3097" d="M693.009,183.021v.509c0,.139-.059.225-.158.225a1.446,1.446,0,0,0-1.461,1.619v2.641a.205.205,0,0,1-.228.228h-.477a.205.205,0,0,1-.228-.228V183.11a.205.205,0,0,1,.228-.228h.477a.205.205,0,0,1,.228.228v.582a1.666,1.666,0,0,1,1.389-.888.193.193,0,0,1,.231.217" transform="translate(-529.618 -140.219)" fill="#005eab"/>
        <path id="Path_3098" data-name="Path 3098" d="M708.114,186.528a2.639,2.639,0,0,1-2.526,1.67,2.815,2.815,0,1,1,0-5.63,2.647,2.647,0,0,1,2.526,1.671c.064.158-.027.26-.185.26H707.4a.3.3,0,0,1-.273-.166,1.715,1.715,0,0,0-1.539-.853,1.9,1.9,0,0,0,0,3.807,1.715,1.715,0,0,0,1.539-.85.29.29,0,0,1,.273-.169h.528c.158,0,.249.1.185.26" transform="translate(-539.057 -140.039)" fill="#005eab"/>
        <path id="Path_3099" data-name="Path 3099" d="M730.375,174.889v-.724a.205.205,0,0,1,.228-.228h.477a.2.2,0,0,1,.228.228v.724a.205.205,0,0,1-.228.228H730.6a.205.205,0,0,1-.228-.228m0,6.327v-4.906a.205.205,0,0,1,.228-.228h.477a.2.2,0,0,1,.228.228v4.906a.205.205,0,0,1-.228.228H730.6a.205.205,0,0,1-.228-.228" transform="translate(-560.237 -133.419)" fill="#005eab"/>
        <path id="Path_3100" data-name="Path 3100" d="M743.026,182.568a1.826,1.826,0,0,1,1.8,2.016v3.252a.205.205,0,0,1-.228.228h-.477a.205.205,0,0,1-.228-.228v-3.217a1.055,1.055,0,0,0-1.112-1.166c-.668,0-1.338.4-1.338,1.56v2.823a.205.205,0,0,1-.228.228h-.477a.205.205,0,0,1-.228-.228V182.93a.2.2,0,0,1,.228-.228h.477a.205.205,0,0,1,.228.228v.432a1.76,1.76,0,0,1,1.587-.794Z" transform="translate(-568.008 -140.039)" fill="#005eab"/>
        <path id="Path_3101" data-name="Path 3101" d="M768.933,182.93v4.906a2.733,2.733,0,0,1-5.3.694.2.2,0,0,1,.228-.239h.48c.137,0,.2.069.241.2a1.611,1.611,0,0,0,1.641.979,1.568,1.568,0,0,0,1.785-1.638v-.745a2.343,2.343,0,0,1-2.035,1.054,2.789,2.789,0,0,1,0-5.577,2.344,2.344,0,0,1,2.035,1.054v-.692a.205.205,0,0,1,.228-.228h.466a.205.205,0,0,1,.228.228m-.922,2.426a1.909,1.909,0,1,0-1.909,1.9,1.872,1.872,0,0,0,1.909-1.9" transform="translate(-585.462 -140.039)" fill="#005eab"/>
        <path id="Path_3102" data-name="Path 3102" d="M289.822,98.837a7.734,7.734,0,0,1-7.4,4.893,8.247,8.247,0,1,1,0-16.494,7.756,7.756,0,0,1,7.4,4.893c.188.464-.079.762-.542.762h-1.547a.862.862,0,0,1-.8-.487,5.024,5.024,0,0,0-4.509-2.5,5.577,5.577,0,0,0,0,11.153,5.026,5.026,0,0,0,4.509-2.49.849.849,0,0,1,.8-.5h1.547c.463,0,.731.3.542.762" transform="translate(-210.283 -66.915)" fill="#1a1718"/>
        <path id="Path_3103" data-name="Path 3103" d="M350.314,81.2V59.918a.6.6,0,0,1,.668-.668h1.4a.6.6,0,0,1,.668.668V81.2a.6.6,0,0,1-.668.668h-1.4a.6.6,0,0,1-.668-.668" transform="translate(-268.71 -45.448)" fill="#1a1718"/>
        <path id="Path_3104" data-name="Path 3104" d="M368.688,95.483a8.279,8.279,0,1,1,8.279,8.247,8.184,8.184,0,0,1-8.279-8.247m13.824,0a5.545,5.545,0,1,0-5.545,5.592,5.477,5.477,0,0,0,5.545-5.592" transform="translate(-282.804 -66.915)" fill="#1a1718"/>
        <path id="Path_3105" data-name="Path 3105" d="M456.665,88.921a.6.6,0,0,1,.668.668v14.374a.6.6,0,0,1-.668.668h-1.4a.6.6,0,0,1-.668-.668V102.7a5.157,5.157,0,0,1-4.65,2.327c-2.922,0-5.262-2.215-5.262-5.906V89.589a.6.6,0,0,1,.668-.668h1.4a.6.6,0,0,1,.667.668v9.425a3.092,3.092,0,0,0,3.26,3.417c1.956,0,3.919-1.186,3.919-4.571V89.589a.6.6,0,0,1,.668-.668h1.4Z" transform="translate(-341.099 -68.207)" fill="#1a1718"/>
        <path id="Path_3106" data-name="Path 3106" d="M522.2,62.615V83.272a.6.6,0,0,1-.668.668h-1.4a.6.6,0,0,1-.668-.668V81.278a6.846,6.846,0,0,1-5.93,3.054,8.252,8.252,0,0,1,0-16.494,6.846,6.846,0,0,1,5.93,3.054V62.615a.6.6,0,0,1,.668-.668h1.4a.6.6,0,0,1,.668.668m-2.733,13.471a5.577,5.577,0,1,0-5.576,5.624,5.491,5.491,0,0,0,5.576-5.624" transform="translate(-387.809 -47.517)" fill="#1a1718"/>
        <path id="Path_3107" data-name="Path 3107" d="M596.313,99.073c0,2.835-2.513,4.658-5.993,4.658-3.228,0-5.624-1.586-5.954-4.4a.59.59,0,0,1,.66-.7h1.382c.4,0,.581.228.707.613.275,1.43,1.626,1.956,3.2,1.956,1.815,0,3.26-.652,3.26-2.129,0-3.558-8.978-1.249-8.978-7.179,0-2.82,2.513-4.658,5.718-4.658,2.946,0,5.31,1.586,5.64,4.4a.59.59,0,0,1-.66.7h-1.382c-.4,0-.581-.228-.707-.62-.267-1.422-1.579-1.948-2.891-1.948-1.539,0-2.985.652-2.985,2.129,0,3.574,8.978,1.241,8.978,7.179" transform="translate(-448.238 -66.915)" fill="#1a1718"/>
        <path id="Path_3108" data-name="Path 3108" d="M644.006,73.037v1.3a.6.6,0,0,1-.668.667h-2.411v12.4a.6.6,0,0,1-.667.668h-1.4a.6.6,0,0,1-.668-.668v-12.4h-2.435a.6.6,0,0,1-.667-.667v-1.3a.6.6,0,0,1,.667-.668h2.435V68.011a.6.6,0,0,1,.668-.668h1.4a.6.6,0,0,1,.667.668V72.37h2.411a.6.6,0,0,1,.668.668" transform="translate(-487.149 -51.656)" fill="#1a1718"/>
        <path id="Path_3109" data-name="Path 3109" d="M685.163,93.205v9.465a.6.6,0,0,1-.668.668h-1.367a.6.6,0,0,1-.667-.668v-.957a5.521,5.521,0,0,1-4.666,2.018c-2.859,0-5.514-1.657-5.514-5.019s2.655-5.019,5.514-5.019a6.081,6.081,0,0,1,4.666,1.819V93.284a3.126,3.126,0,0,0-3.409-3.456c-1.61,0-3.032.731-3.331,2.207-.118.393-.3.621-.7.621h-1.382a.6.6,0,0,1-.667-.7c.361-2.851,2.827-4.721,6.079-4.721,3.5,0,6.111,2.176,6.111,5.97m-2.7,5.506c0-1.681-1.6-2.725-3.872-2.725-2.458,0-3.574,1.155-3.574,2.725s1.115,2.725,3.574,2.725c2.27,0,3.872-1.154,3.872-2.725" transform="translate(-515.676 -66.915)" fill="#1a1718"/>
        <path id="Path_3110" data-name="Path 3110" d="M734.8,66.361v.471h3.456a.6.6,0,0,1,.668.668v1.3a.6.6,0,0,1-.668.668H734.8v12.4a.6.6,0,0,1-.668.668h-1.4a.6.6,0,0,1-.668-.668v-12.4H730.2a.6.6,0,0,1-.667-.668V67.5a.6.6,0,0,1,.667-.668h1.862v-.471c0-3.967,2.144-6.284,6.189-6.236a.635.635,0,0,1,.668.7v1.3c0,.432-.236.636-.7.636-2.278-.024-3.425,1.123-3.425,3.6" transform="translate(-559.593 -46.118)" fill="#1a1718"/>
        <path id="Path_3111" data-name="Path 3111" d="M767.436,66.361v.471h3.456a.6.6,0,0,1,.668.668v1.3a.6.6,0,0,1-.668.668h-3.456v12.4a.6.6,0,0,1-.668.668h-1.4a.6.6,0,0,1-.668-.668v-12.4h-1.862a.6.6,0,0,1-.667-.668V67.5a.6.6,0,0,1,.667-.668H764.7v-.471c0-3.967,2.144-6.284,6.189-6.236a.635.635,0,0,1,.668.7v1.3c0,.432-.236.636-.7.636-2.278-.024-3.425,1.123-3.425,3.6" transform="translate(-584.628 -46.118)" fill="#1a1718"/>
        <path id="Path_3112" data-name="Path 3112" d="M794.731,143.516h-.721v2.46h-.721v-2.46h-.721v-.694h2.162Z" transform="translate(-607.943 -109.552)" fill="#1a1718"/>
        <path id="Path_3113" data-name="Path 3113" d="M806.358,145.976h-.721v-1.932l-.608,1.442h-.5l-.608-1.442v1.932H803.2v-3.153h.811l.766,1.82.766-1.82h.811Z" transform="translate(-616.101 -109.553)" fill="#1a1718"/>
      </g>
    </g>
  </g>
</svg>
